<?xml version="1.0" standalone="no"?>
<!DOCTYPE svg PUBLIC "-//W3C//DTD SVG 20010904//EN"
 "http://www.w3.org/TR/2001/REC-SVG-20010904/DTD/svg10.dtd">
<svg version="1.0" xmlns="http://www.w3.org/2000/svg"
 width="400.000000pt" height="400.000000pt" viewBox="0 0 400.000000 400.000000"
 preserveAspectRatio="xMidYMid meet">
<metadata>
Created by potrace 1.11, written by Peter Selinger 2001-2013
</metadata>
<g transform="translate(0.000000,400.000000) scale(0.100000,-0.100000)"
fill="#000000" stroke="none">
<path d="M400 2544 c0 -570 4 -1034 8 -1032 4 2 216 86 470 188 l462 185 0
848 0 847 -470 0 -470 0 0 -1036z"/>
<path d="M1530 2734 c0 -802 1 -846 18 -840 9 4 221 88 470 188 l452 182 0
658 0 658 -470 0 -470 0 0 -846z"/>
<path d="M2660 2925 c0 -360 3 -655 8 -655 4 0 214 83 467 184 l460 184 3 471
2 471 -470 0 -470 0 0 -655z"/>
<path d="M3573 2482 c-7 -4 -215 -89 -463 -187 l-450 -180 0 -847 0 -848 470
0 470 0 0 1035 c0 569 -3 1035 -7 1035 -5 0 -13 -4 -20 -8z"/>
<path d="M1993 1922 l-463 -186 0 -658 0 -658 470 0 470 0 0 845 c0 465 -3
845 -7 845 -5 -1 -216 -85 -470 -188z"/>
<path d="M860 1545 l-455 -183 -3 -471 -2 -471 470 0 470 0 0 655 c0 518 -3
655 -12 654 -7 0 -218 -83 -468 -184z"/>
</g>
</svg>
